<?xml version="1.0" encoding="utf-8"?>
<!-- Generator: Adobe Illustrator 19.1.0, SVG Export Plug-In . SVG Version: 6.00 Build 0)  -->
<svg version="1.2" baseProfile="tiny" id="Ebene_1" xmlns="http://www.w3.org/2000/svg" xmlns:xlink="http://www.w3.org/1999/xlink"
	 x="0px" y="0px" viewBox="206 327 1024 140.2" xml:space="preserve">
<g>
	<g>
		<path fill="#FFFFFF" d="M275.2,381.4L275.2,381.4l-27.5-3.9c-4.1-0.6-7.3-1.6-9.3-3.1c-2-1.5-3-3.4-3-6.7c0-3.6,1.9-6.3,5.1-8.3
			c3.2-2,7.6-3,11.7-3c7.3,0,12.8,1.1,16.4,3.5c3.6,2.4,5.6,5.9,6,11.7l0.1,1.8H300l-0.1-1.9c-0.3-10.2-4.6-18.6-12.4-24.3
			c-7.8-5.7-19-8.7-33.3-8.7c-11.4,0-22.5,2.3-30.9,7.5c-8.4,5.2-14.1,13.7-14,25.4c0,6.7,2.3,13.2,8,18.2c5.7,5,14.5,8.7,27.4,10.4
			l19.8,2.7c5.2,0.7,8.8,1.9,10.9,3.4c2.1,1.6,3,3.3,3,6.3c0,2.9-1.3,5.9-4.7,8.4c-3.4,2.5-9.1,4.4-17.7,4.4
			c-8.2,0-14.2-1.7-18.1-4.5c-3.9-2.9-6-6.8-6.6-12.1l-0.2-1.7H206v1.9c0,10.8,4.7,19.7,13,25.5c8.3,5.9,19.9,8.9,34.1,8.9
			c16.5,0,29.2-2.9,38-8.6c8.8-5.7,13.5-14.3,13.4-24.7c0-5.3-1.3-11.6-5.7-17C294.4,387.4,286.9,383,275.2,381.4"/>
	</g>
	<polygon fill="#FFFFFF" points="393.2,416.4 358.1,341 319.2,341 319.2,440.6 342.4,440.6 342.4,364.3 377.9,440.6 406.6,440.6 
		441.2,364.5 441.2,440.6 466.5,440.6 466.5,341 427.6,341 	"/>
	<path fill="#FFFFFF" d="M550.5,381.4L550.5,381.4l-27.5-3.9c-4.1-0.6-7.3-1.6-9.3-3.1c-2-1.5-3-3.4-3.1-6.7c0-3.6,1.9-6.3,5.1-8.3
		c3.2-2,7.6-3,11.7-3c7.3,0,12.8,1.1,16.4,3.5c3.6,2.4,5.6,5.9,6,11.7l0.1,1.8h25.2l-0.1-1.9c-0.3-10.2-4.6-18.6-12.4-24.3
		c-7.8-5.7-19-8.7-33.3-8.7c-11.4,0-22.5,2.3-30.9,7.5c-8.4,5.2-14.1,13.7-14,25.4c0,6.7,2.3,13.2,8,18.2c5.7,5,14.5,8.7,27.4,10.4
		l19.8,2.7c5.2,0.7,8.8,1.9,10.9,3.4c2.1,1.6,3,3.3,3,6.3c0,2.9-1.3,5.9-4.7,8.4c-3.4,2.5-9.1,4.4-17.7,4.4
		c-8.2,0-14.2-1.7-18.1-4.5c-3.9-2.9-6-6.8-6.6-12.1l-0.2-1.7h-25.1v1.9c0,10.8,4.7,19.7,13,25.5c8.3,5.9,19.9,8.9,34.1,8.9
		c16.5,0,29.2-2.9,38-8.6c8.8-5.7,13.5-14.3,13.4-24.7c0-5.3-1.3-11.6-5.7-17C569.6,387.4,562.2,383,550.5,381.4"/>
	<path fill="#FFFFFF" d="M842.6,377c-6.3-5.7-14.8-9.4-26.4-9.4c-10.9,0-20.5,3.5-27.4,9.8c-6.9,6.4-10.9,15.6-10.9,26.7
		c0,9.4,3.5,18.3,10.1,24.8c6.6,6.6,16.3,10.7,28.5,10.7c8,0,18.1-2.7,24.9-9v4.5c0,5.6-1.8,9.5-5.2,12.2c-3.4,2.7-8.7,4.2-15.9,4.2
		c-4.5,0-8.4-0.9-11-2.3c-2.6-1.5-3.9-3.3-4-5.8l0-1.8h-24l0.1,2c0.4,8.9,5.1,15.1,12.2,18.7c7.1,3.6,16.5,5,27.1,5
		c13.6,0,24.6-2.1,32.5-7.4c7.9-5.2,12.2-13.6,12.2-24.9v-46.3c0-4.6,0.2-12.7,0.5-16.3l0.2-2h-22.8L842.6,377z M826.1,422.9
		c-1.2,0.2-2.4,0.3-3.8,0.3c-2.1,0-4-0.3-5.8-0.7c-0.3-0.1-0.7-0.2-1-0.3c-3-0.9-5.5-2.5-7.4-4.6c-2.3-2.5-3.8-5.7-4.5-9.5
		c-0.3-1.4-0.4-2.9-0.4-4.5c0-5.7,1.7-10.6,4.9-14c1.4-1.5,3-2.7,4.9-3.6c2.1-1,4.5-1.7,7.3-1.9c0.6,0,1.3-0.1,2-0.1
		c0.6,0,1.1,0,1.7,0.1c3.9,0.2,7.1,1.3,9.6,3c0.1,0,0.1,0.1,0.2,0.1c0,0,0.1,0.1,0.1,0.1c0.9,0.6,1.8,1.4,2.5,2.2
		c0.2,0.2,0.4,0.5,0.6,0.7c1,1.3,1.9,2.7,2.6,4.3c0.1,0.2,0.1,0.3,0.2,0.5c0.2,0.4,0.3,0.8,0.4,1.2c0,0.1,0,0.2,0.1,0.2
		c0.7,2.2,1,4.6,1,7.1c0,2.8-0.4,5.3-1.2,7.6c-0.8,2.5-2.1,4.7-3.7,6.4c-0.8,0.8-1.6,1.6-2.6,2.2c0,0-0.1,0.1-0.1,0.1
		c-0.1,0-0.1,0.1-0.2,0.1C831.6,421.5,829.1,422.4,826.1,422.9"/>
	<path fill="#FFFFFF" d="M923,368.9c-8.1,0-13.7,2.4-17.3,5.5c-1.3,1.1-2.4,2.3-3.3,3.5c-0.1-2-0.2-4-0.4-6l-0.1-1.7h-23.1l0.1,2
		c0.2,4.5,0.5,10.3,0.5,16.6v51.8h23.9v-28.8c0-8.9,2.1-14.6,5.8-18.2c3.7-3.6,9.5-5.3,17.4-5.3c1.9,0,3.6,0.1,5,0.3
		c1.6,0.1,3,0.3,4,0.5l2.3,0.5v-19l-1.5-0.3C931.5,369.3,927.4,368.9,923,368.9"/>
	<path fill="#FFFFFF" d="M988.1,367.7c-17.2,0-28.7,4.5-35.7,11.6c-7.1,7.1-9.6,16.7-9.5,26.1c0,9.5,2.5,19,9.5,26.1
		c7.1,7.1,18.5,11.6,35.7,11.6h0c17.2,0,28.6-4.5,35.7-11.6c7.1-7.1,9.6-16.6,9.6-26.1c0-9.5-2.5-19-9.6-26.1
		C1016.8,372.1,1005.3,367.6,988.1,367.7 M967.5,405.4c0-3.5,0.6-6.7,1.6-9.5c0.8-2.2,1.9-4.1,3.4-5.7c1.5-1.7,3.4-3,5.6-4.1
		c0.7-0.3,1.4-0.6,2.1-0.8c0.6-0.2,1.3-0.4,2-0.5c0.1,0,0.2-0.1,0.4-0.1c0.6-0.1,1.3-0.2,2-0.3c0.2,0,0.4-0.1,0.6-0.1
		c0.9-0.1,1.9-0.1,2.8-0.1c2.6,0,5,0.3,7,0.9c0.1,0,0.1,0,0.2,0.1c0.3,0.1,0.6,0.2,0.8,0.3c3.1,1,5.6,2.7,7.5,4.8
		c0.2,0.3,0.4,0.5,0.7,0.8c0.2,0.2,0.4,0.4,0.5,0.6c0,0,0,0.1,0.1,0.1c1.4,2,2.4,4.4,3.1,7.1c0.5,2,0.7,4.2,0.7,6.5
		c0,6.2-1.7,11.5-5,15.2c-3.3,3.7-8.3,6-15.6,6c-0.5,0-1,0-1.5-0.1c-0.4,0-0.8,0-1.1,0c-0.2,0-0.3,0-0.5-0.1
		c-5.6-0.6-9.6-2.7-12.5-5.9c-0.6-0.6-1.1-1.3-1.6-2.1C968.7,415,967.5,410.5,967.5,405.4"/>
	<g>
		<path fill="#FFFFFF" d="M1127.4,370.2h-1.9h-22v34c0,7.7-2.4,13.1-5.9,16.5c-3.5,3.5-8.2,5.1-13,5.1c-4.6,0-8.4-0.9-11-3.5
			c-2.6-2.5-4.4-7-4.4-15v-37.2h-23.9v42.9c0,11.4,5,19.1,11.6,23.7c6.6,4.6,14.5,6.3,20.8,6.3h0.2c10.8,0,19.7-3.3,26.5-10.6
			c0.1,2.1,0.3,4.2,0.4,6.3l0.1,1.7h23v-1.9c0-4.4-0.5-10.1-0.5-15.8L1127.4,370.2L1127.4,370.2z"/>
		<path fill="#FFFFFF" d="M1220.4,378.8c-6.5-6.9-16.3-11.2-29-11.2c-9.4,0-19.2,2.3-25.8,8.9c-0.1-1.5-0.2-3.1-0.4-4.6l-0.2-1.7
			h-23.1l0.1,2c0.3,3.6,0.5,10.1,0.5,15.5v78.4h23.9v-31.9c7.1,6.8,16.8,8.9,25.6,8.9c6.8,0,16.2-1.7,24-7.3
			c7.8-5.7,13.9-15.5,13.9-30.9C1230,395,1226.8,385.7,1220.4,378.8 M1204,413.2c-2.2,6.6-7.2,11.5-13.9,13
			c-1.3,0.3-2.7,0.4-4.2,0.4c-4.3,0-8.1-1.3-11.2-3.6c-0.6-0.5-1.2-1-1.8-1.5c-0.1-0.1-0.2-0.2-0.3-0.3c-1-1-1.9-2.2-2.7-3.4
			c-0.3-0.5-0.6-1-0.8-1.5c-0.1-0.2-0.2-0.4-0.3-0.6c-0.6-1.4-1.1-2.8-1.5-4.3c0-0.2-0.1-0.3-0.1-0.5c-0.4-1.7-0.6-3.5-0.6-5.3
			c0.1-11.8,7.8-21.2,19.4-21.2c11.6,0,19.3,9.4,19.4,21.2C1205.2,408.2,1204.8,410.8,1204,413.2"/>
	</g>
	<path fill="#FFFFFF" d="M678.5,414.5c0,0,0.1,0,0.1,0c5.4,0,10.2-2.4,13.6-6.1c2.9-3.2,4.7-7.5,4.7-12.3c0-4.4-1.6-8.5-4.2-11.6
		c-3.3-4.1-8.4-6.6-14-6.7c0,0-0.1,0-0.1,0c0,0,0,0,0,0c-4.2,0-8.1,1.4-11.2,3.8c-4.3,3.4-7.1,8.6-7.1,14.5
		C660.3,406.3,668.5,414.4,678.5,414.5"/>
	<path fill="#E2001A" d="M717.8,349l-2.6,3.1c9.9,8.2,17.1,19.7,19.6,33.3c0,0.3,0.1,0.5,0.1,0.8c0,0.2,0.1,0.4,0.1,0.5
		c2.3,14-0.6,27.7-7.5,39.1c-8.1,13.4-21.6,23.4-38.2,26.6c-0.1,0-0.2,0-0.3,0.1c-16.9,3.1-33.4-1.5-45.9-11.4
		c-0.7-0.6-1.4-1.2-2.1-1.8c-2.2-2-4.3-4.1-6.3-6.4c-1.8-2.2-3.5-4.4-4.9-6.9c-3.5-5.7-6-12.1-7.4-19.1
		c-3.1-16.4,1.1-32.5,10.3-44.9c1-1.3,2-2.5,3-3.7c8.1-9.2,19.2-15.8,32.1-18.3c0,0,0,0,0.1,0l-0.2-1l-2-10.7c0,0-0.1,0-0.1,0
		c-16.5,3.1-30.5,11.9-40.4,23.9c-1.3,1.5-2.4,3.1-3.6,4.7c-10.2,14.7-14.7,33.3-11,52.3c5.6,29.2,28.8,50.6,56.5,55.3
		c7.7,1.3,15.8,1.3,24-0.2c0.1,0,0.3,0,0.4-0.1c20-3.8,36.4-15.9,46.2-32.1c5.8-9.5,9.3-20.5,9.9-31.9c0.3-5.5,0-11.2-1.1-16.9
		c-3.1-16.4-11.8-30.3-23.7-40.2L717.8,349z"/>
	<path fill="#0076BD" d="M678.2,343.1c-12.2,0.1-23.4,4.3-32.4,11.4c-2.9,2.3-5.6,4.9-8,7.8c-7.7,9.3-12.4,21.3-12.2,34.4
		c0,4.2,0.6,8.3,1.5,12.2c2.3,9.4,7.1,17.9,13.7,24.6c9.7,9.8,23.1,15.9,38,15.8l0-7.1l0-5.9c-22,0.1-40-17.7-40.2-39.8
		c-0.1-12.9,5.9-24.5,15.3-31.9c6.7-5.3,15.2-8.5,24.4-8.6h0.1c0.1,0,0.1,0,0.2,0c12.4,0,23.4,5.5,30.8,14.3
		c5.8,6.9,9.3,15.7,9.4,25.4c0.1,10.3-3.7,19.8-10.1,26.9l1.4,1.3l8.3,7.4c7.2-8.1,11.9-18.4,13-29.7c0.2-1.9,0.3-3.9,0.3-5.9
		c0-1.6-0.1-3.1-0.3-4.6c-1-11-5.4-21-12.1-29c-6.4-7.6-14.9-13.4-24.6-16.5c-5.1-1.6-10.6-2.5-16.2-2.5
		C678.4,343.1,678.3,343.1,678.2,343.1C678.2,343.1,678.2,343.1,678.2,343.1"/>
	<path fill="#E2001A" d="M642.7,396.2c0,19.8,16,35.8,35.7,35.9c0.1,0,0.1,0,0.2,0c10.6,0,20.1-4.6,26.7-11.9
		c5.7-6.4,9.2-14.8,9.2-24.1c0-8.7-3.1-16.6-8.2-22.9c-6.5-7.9-16.4-13-27.5-13.1l-0.1,13.5c6.9,0,13.1,3.2,17.2,8.2
		c3.2,3.9,5.1,8.9,5.1,14.3c0,5.8-2.2,11-5.8,15c-4.1,4.6-10,7.4-16.6,7.4c0,0-0.1,0-0.1,0c-12.3-0.1-22.3-10.1-22.3-22.4
		c0-7.2,3.4-13.6,8.7-17.7l-8.3-10.7C648.2,374.3,642.7,384.6,642.7,396.2"/>
	<path fill="#E2001A" d="M725.9,357.2l-3.1,2.6c8.2,9.9,13.1,22.6,13.1,36.4c0,0.3,0,0.5,0,0.8c0,0.2,0,0.4,0,0.5
		c-0.3,14.2-5.8,27.1-14.7,36.9c-10.5,11.6-25.6,18.9-42.5,18.9c-0.1,0-0.2,0-0.3,0c-17.2-0.1-32.5-7.8-42.9-19.8
		c-0.6-0.7-1.2-1.4-1.8-2.1c-1.8-2.3-3.5-4.9-5-7.5c-1.4-2.4-2.5-5-3.6-7.7c-2.4-6.3-3.7-13-3.7-20.1c0-16.7,7.2-31.7,18.6-42.2
		c1.2-1.1,2.4-2.1,3.7-3.1c9.7-7.5,21.8-12,35-12c0,0,0,0,0.1,0v-1.1l0-10.9c0,0-0.1,0-0.1,0c-16.8,0-32.2,6-44.1,15.9
		c-1.5,1.3-3,2.6-4.4,4c-12.7,12.5-20.6,30-20.6,49.3c0,29.8,18.8,55.1,45.1,64.9c7.4,2.7,15.3,4.2,23.6,4.3c0.1,0,0.3,0,0.4,0
		c20.4,0,38.7-8.8,51.4-22.9c7.5-8.3,12.9-18.4,15.7-29.5c1.3-5.4,2.1-11,2.1-16.8c0-16.7-5.9-32-15.8-44L725.9,357.2z"/>
</g>
</svg>
